<?xml version="1.0" standalone="no"?>
<!DOCTYPE svg PUBLIC "-//W3C//DTD SVG 20010904//EN"
 "http://www.w3.org/TR/2001/REC-SVG-20010904/DTD/svg10.dtd">
<svg version="1.0" xmlns="http://www.w3.org/2000/svg"
 width="826.000000pt" height="826.000000pt" viewBox="0 0 826.000000 826.000000"
 preserveAspectRatio="xMidYMid meet">

<g transform="translate(0.000000,826.000000) scale(0.100000,-0.100000)"
fill="#000000" stroke="none">
<path d="M3800 7042 c-80 -27 -117 -48 -173 -101 -192 -178 -208 -463 -37
-653 224 -248 618 -193 766 106 32 67 37 86 42 170 3 56 0 114 -7 140 -35 139
-127 251 -257 313 -70 33 -86 37 -178 40 -78 2 -113 -1 -156 -15z m281 -62
c188 -75 298 -267 259 -455 -27 -133 -113 -244 -230 -299 -83 -39 -208 -48
-291 -21 -177 57 -289 210 -289 395 0 281 292 482 551 380z"/>
<path d="M3002 6141 c-134 -76 -248 -143 -254 -149 -8 -8 -7 -22 7 -51 37 -83
22 -87 308 76 141 81 257 153 257 161 0 21 -50 102 -63 102 -7 0 -121 -62
-255 -139z"/>
<path d="M5025 5898 c-15 -12 -34 -36 -41 -55 l-14 -33 -76 0 c-73 0 -75 -1
-92 -30 l-17 -30 -629 0 -629 0 -213 -97 -213 -98 135 -3 134 -3 0 -239 0
-240 140 0 140 0 2 238 3 237 418 3 417 2 0 -705 0 -705 -67 0 c-38 -1 -354
-1 -703 0 l-635 0 -3 85 c-1 47 -5 85 -8 85 -3 0 -101 -44 -217 -97 l-212 -98
133 -3 132 -3 0 -244 0 -245 140 0 140 0 0 245 0 245 418 -2 417 -3 3 -282 2
-283 30 0 30 0 0 285 0 285 145 0 145 0 0 -245 0 -245 124 0 c68 0 131 3 140
6 14 5 16 36 16 245 l0 239 415 0 415 0 2 -704 3 -703 -119 -7 c-66 -3 -383
-6 -705 -6 l-586 0 3 185 4 185 -31 0 -31 0 0 -154 c0 -84 -3 -168 -6 -185
l-7 -32 -76 2 c-42 2 -357 2 -701 0 l-625 -2 -5 34 -5 33 -90 -43 -90 -43 138
3 137 2 0 -249 0 -248 23 6 c12 3 75 6 140 6 l117 0 0 240 0 240 415 0 415 0
1 -442 c0 -244 0 -561 0 -705 -1 -145 1 -263 4 -263 3 0 19 7 35 15 l30 16 0
689 0 690 145 0 145 0 0 -240 c0 -185 3 -240 13 -240 58 -2 199 -3 230 -1 l37
1 0 240 0 240 415 0 415 0 0 -706 c0 -395 4 -704 9 -702 4 2 106 48 225 102
l216 99 0 671 0 672 103 46 102 47 3 705 2 706 -130 0 -130 0 0 704 0 705 -22
15 c-17 12 -50 16 -140 16 -92 0 -118 3 -118 13 0 31 -35 47 -101 47 -74 0
-80 3 -98 48 -25 61 -121 83 -176 40z m103 -54 c12 -8 22 -25 22 -36 0 -27
-28 -58 -52 -58 -22 0 -58 34 -58 55 0 18 35 55 53 55 7 0 23 -7 35 -16z
m-338 -154 c0 -6 108 -10 305 -10 197 0 305 4 305 10 0 6 43 10 110 10 l110 0
0 -740 0 -740 -507 2 -508 3 -3 738 -2 737 95 0 c57 0 95 -4 95 -10z m-260
-109 c0 -5 -7 -11 -14 -14 -10 -4 -13 -1 -9 9 6 15 23 19 23 5z"/>
<path d="M4755 5478 c-28 -16 -35 -28 -35 -65 0 -42 30 -73 70 -73 40 0 70 31
70 73 0 38 -7 50 -37 66 -27 14 -42 14 -68 -1z m45 -53 c52 27 58 10 6 -20
-51 -30 -66 -25 -66 20 1 19 1 19 14 2 13 -17 16 -17 46 -2z"/>
<path d="M4742 5170 c-30 -28 -30 -82 0 -110 47 -44 118 -11 118 55 0 41 -32
75 -70 75 -14 0 -36 -9 -48 -20z m108 -29 c0 -5 -21 -21 -47 -35 -49 -28 -63
-24 -63 19 1 19 1 19 14 2 14 -18 16 -18 53 2 45 24 43 23 43 12z"/>
<path d="M4742 4870 c-17 -16 -22 -31 -20 -57 8 -94 138 -92 138 1 0 44 -18
65 -60 72 -27 4 -40 1 -58 -16z"/>
<path d="M4740 4570 c-30 -30 -27 -83 6 -109 15 -12 34 -21 44 -21 10 0 29 9
44 21 52 41 23 129 -44 129 -17 0 -39 -9 -50 -20z"/>
<path d="M1598 5362 c-51 -27 -113 -52 -136 -55 -56 -7 -88 -37 -102 -97 -17
-71 4 -185 45 -243 15 -21 15 -19 13 33 -3 63 10 77 32 33 21 -41 40 -33 30
13 -9 41 3 96 27 115 11 10 61 15 170 19 148 5 156 6 174 29 36 44 17 165 -29
190 -12 6 -46 11 -76 11 -47 0 -70 -7 -148 -48z"/>
<path d="M1295 4774 c-113 -21 -163 -47 -186 -98 -20 -45 -64 -253 -75 -352
l-6 -61 118 -12 c139 -14 148 -17 141 -35 -3 -7 -9 -34 -12 -60 -9 -56 -41
-65 265 77 224 103 225 104 250 151 27 50 59 76 121 96 21 7 39 18 39 24 -1
19 -40 99 -66 133 -36 48 -100 88 -178 112 -37 11 -70 21 -72 21 -2 0 -4 -19
-4 -43 0 -49 -13 -67 -50 -67 -37 0 -131 59 -155 97 -23 36 -22 36 -130 17z"/>
<path d="M2186 4618 c-207 -345 -197 -335 -210 -229 -9 66 -14 75 -32 60 -11
-9 -11 -15 1 -40 31 -59 11 -97 -76 -139 -33 -16 -85 -51 -117 -78 -125 -107
-338 -257 -459 -323 l-63 -34 0 -99 c0 -54 -6 -124 -14 -155 -8 -31 -20 -100
-25 -153 -15 -137 -15 -2024 0 -2034 6 -3 48 -8 92 -11 60 -4 87 -1 99 9 19
15 43 189 102 758 20 184 49 468 66 630 17 162 33 296 35 298 16 16 54 -526
65 -923 15 -537 28 -713 57 -737 18 -15 183 -23 202 -9 17 11 24 107 41 491
27 647 23 1445 -10 1644 -17 103 -33 450 -25 549 l7 97 40 6 39 7 -6 50 -7 50
33 -6 c99 -17 231 -29 238 -21 5 5 21 30 36 57 22 39 24 47 10 47 -40 0 -76
70 -59 114 9 23 77 39 119 27 l35 -9 55 94 c31 52 58 100 61 108 4 10 -12 15
-73 20 -43 4 -100 9 -128 12 l-50 5 -79 -133z"/>
<path d="M3860 4313 l0 -38 234 0 235 0 -3 35 -2 35 -232 3 -232 2 0 -37z
m422 -15 c-9 -9 -42 -1 -42 12 0 4 12 5 26 2 15 -3 22 -8 16 -14z"/>
<path d="M3390 3295 c0 -60 3 -75 15 -75 12 0 15 15 15 75 0 60 -3 75 -15 75
-12 0 -15 -15 -15 -75z"/>
<path d="M3470 3295 c0 -68 2 -75 19 -75 17 0 20 8 23 48 l3 47 30 -47 c17
-28 38 -48 48 -48 15 0 17 10 17 75 0 60 -3 75 -15 75 -11 0 -15 -11 -15 -40
0 -22 -4 -40 -9 -40 -4 0 -20 18 -35 40 -16 24 -34 40 -46 40 -18 0 -20 -7
-20 -75z"/>
<path d="M3661 3358 c0 -7 10 -40 23 -73 19 -49 27 -60 46 -60 20 0 27 10 47
69 12 38 21 71 18 74 -12 13 -33 -11 -45 -52 -7 -26 -16 -48 -20 -51 -4 -2
-14 20 -24 50 -10 34 -23 55 -32 55 -7 0 -14 -6 -13 -12z"/>
<path d="M3850 3295 l0 -75 45 0 c33 0 45 4 45 15 0 10 -10 15 -30 15 -23 0
-30 4 -30 20 0 15 7 20 25 20 14 0 25 5 25 10 0 6 -11 10 -25 10 -18 0 -25 5
-25 20 0 16 7 20 30 20 17 0 30 5 30 10 0 6 -20 10 -45 10 l-45 0 0 -75z"/>
<path d="M3990 3295 c0 -60 3 -75 15 -75 11 0 15 12 15 45 0 25 3 45 8 45 4 0
19 -21 34 -45 42 -69 58 -61 58 30 0 59 -3 75 -14 75 -11 0 -16 -14 -18 -47
l-3 -47 -29 47 c-18 28 -37 47 -48 47 -16 0 -18 -9 -18 -75z"/>
<path d="M4170 3360 c0 -5 9 -10 20 -10 18 0 20 -7 20 -65 0 -51 3 -65 15 -65
12 0 15 13 15 61 0 52 3 62 20 66 39 10 19 23 -35 23 -30 0 -55 -4 -55 -10z"/>
<path d="M4348 3353 c-24 -28 -28 -50 -17 -83 26 -74 130 -64 145 15 9 46 -26
85 -75 85 -24 0 -44 -7 -53 -17z m95 -42 c7 -27 -20 -63 -45 -59 -28 4 -42 29
-34 61 10 42 67 41 79 -2z"/>
<path d="M4530 3295 c0 -60 3 -75 15 -75 10 0 15 10 15 30 0 17 4 30 9 30 5 0
14 -13 21 -30 8 -18 20 -30 31 -30 19 0 19 1 3 32 -15 28 -15 32 0 40 19 11
21 49 4 66 -7 7 -31 12 -55 12 l-43 0 0 -75z m69 46 c19 -12 6 -41 -19 -41
-15 0 -20 7 -20 25 0 26 14 31 39 16z"/>
<path d="M4690 3365 c0 -4 8 -20 17 -38 9 -18 19 -48 22 -67 8 -43 41 -56 41
-15 0 14 11 48 25 75 23 46 24 50 7 50 -11 0 -25 -13 -34 -32 l-15 -33 -17 33
c-9 17 -23 32 -31 32 -8 0 -15 -2 -15 -5z"/>
<path d="M3413 2903 c-19 -4 -23 -11 -23 -39 l0 -34 226 0 225 0 -7 22 c-6 21
-5 22 10 8 16 -13 17 -11 14 16 l-3 29 -210 1 c-115 1 -220 -1 -232 -3z"/>
<path d="M4860 2865 l0 -35 235 0 235 0 0 35 0 35 -235 0 -235 0 0 -35z"/>
<path d="M3184 1456 c-3 -8 -4 -25 -2 -38 l3 -23 233 -3 232 -2 0 40 0 40 -61
-2 c-51 -1 -63 -5 -67 -20 -4 -18 -5 -18 -24 2 -17 18 -30 20 -164 20 -116 0
-146 -3 -150 -14z"/>
<path d="M4657 1463 c-4 -3 -7 -21 -7 -40 l0 -33 235 0 235 0 0 40 0 40 -228
0 c-126 0 -232 -3 -235 -7z"/>
<path d="M1706 1243 c-4 -54 -9 -114 -11 -134 l-5 -36 137 -6 c250 -12 363 -8
363 14 0 5 -22 20 -48 33 -64 33 -158 108 -207 167 -43 52 -62 59 -160 59
l-63 0 -6 -97z"/>
<path d="M1182 1194 c-13 -58 -20 -109 -17 -112 3 -4 51 -8 106 -10 129 -6
134 -2 126 93 -4 38 -9 85 -13 103 l-6 32 -87 0 -86 0 -23 -106z"/>
</g>
</svg>
